<svg width="144" height="35" viewBox="0 0 144 35" fill="none" xmlns="http://www.w3.org/2000/svg">
<rect width="32" height="32" rx="16" fill="url(#paint0_linear_713_1593)"/>
<path d="M20.7499 21.8233L17.0589 21.6018L15.7934 16.879M25.792 18.0512C24.4548 13.0609 19.3254 10.0994 14.3351 11.4366C9.34486 12.7737 6.38341 17.9031 7.72055 22.8934C9.05769 27.8837 14.1871 30.8451 19.1774 29.508C19.7564 29.3528 20.3082 29.1466 20.8291 28.8955M22.3739 25.6251L24.522 26.8653L27.8293 21.1369" stroke="#F5F5F5" stroke-width="2.5" stroke-linecap="round" stroke-linejoin="round"/>
<path d="M136.497 22.256C135.1 22.256 133.879 21.9947 132.833 21.472C131.788 20.9493 130.977 20.2187 130.401 19.28C129.825 18.3413 129.537 17.248 129.537 16C129.537 14.752 129.825 13.6587 130.401 12.72C130.977 11.7813 131.788 11.0507 132.833 10.528C133.879 10.0053 135.1 9.74399 136.497 9.74399C137.895 9.74399 139.116 10.0053 140.161 10.528C141.217 11.0507 142.033 11.7813 142.609 12.72C143.196 13.6587 143.489 14.752 143.489 16C143.489 17.248 143.196 18.3413 142.609 19.28C142.033 20.2187 141.217 20.9493 140.161 21.472C139.116 21.9947 137.895 22.256 136.497 22.256ZM125.849 22C125.297 22 124.849 21.5523 124.849 21V11C124.849 10.4477 125.297 9.99999 125.849 9.99999H126.873C127.426 9.99999 127.873 10.4477 127.873 11V21C127.873 21.5523 127.426 22 126.873 22H125.849ZM127.529 17.248C126.977 17.248 126.529 16.8003 126.529 16.248V15.592C126.529 15.0397 126.977 14.592 127.529 14.592H130.089C130.642 14.592 131.089 15.0397 131.089 15.592V16.248C131.089 16.8003 130.642 17.248 130.089 17.248H127.529ZM136.497 19.552C137.319 19.552 138.023 19.408 138.609 19.12C139.196 18.832 139.649 18.4213 139.969 17.888C140.289 17.3547 140.449 16.7253 140.449 16C140.449 15.264 140.289 14.6347 139.969 14.112C139.649 13.5787 139.196 13.168 138.609 12.88C138.023 12.592 137.319 12.448 136.497 12.448C135.687 12.448 134.988 12.592 134.401 12.88C133.815 13.168 133.361 13.5787 133.041 14.112C132.721 14.6347 132.561 15.264 132.561 16C132.561 16.7253 132.721 17.3547 133.041 17.888C133.361 18.4213 133.815 18.832 134.401 19.12C134.988 19.408 135.687 19.552 136.497 19.552Z" fill="#6D6EFF"/>
<path d="M110.919 11C110.919 10.4477 111.366 10 111.919 10H112.943C113.495 10 113.943 10.4477 113.943 11V21C113.943 21.5523 113.495 22 112.943 22H111.919C111.366 22 110.919 21.5523 110.919 21V11ZM120.455 11C120.455 10.4477 120.902 10 121.455 10H122.463C123.015 10 123.463 10.4477 123.463 11V21C123.463 21.5523 123.015 22 122.463 22H121.455C120.902 22 120.455 21.5523 120.455 21V11ZM112.599 15.592C112.599 15.0397 113.046 14.592 113.599 14.592H120.735C121.287 14.592 121.735 15.0397 121.735 15.592V16.248C121.735 16.8003 121.287 17.248 120.735 17.248H113.599C113.046 17.248 112.599 16.8003 112.599 16.248V15.592Z" fill="#6D6EFF"/>
<path d="M108.548 10C109.1 10 109.548 10.4477 109.548 11V21C109.548 21.5523 109.1 22 108.548 22H107.668C107.115 22 106.668 21.5523 106.668 21V11.3576C106.668 11.1945 106.806 11.0654 106.968 11.0765C107.164 11.0898 107.287 11.2939 107.206 11.4727L102.756 21.4087C102.595 21.7685 102.238 22 101.844 22H100.051C99.6568 22 99.2997 21.7689 99.1384 21.4098L94.6862 11.498C94.6065 11.3207 94.7252 11.1177 94.9188 11.1001C95.0846 11.085 95.2275 11.2155 95.2275 11.382V21C95.2275 21.5523 94.7798 22 94.2275 22H93.3475C92.7952 22 92.3475 21.5523 92.3475 21V11C92.3475 10.4477 92.7952 10 93.3475 10H96.3477C96.7459 10 97.1062 10.2363 97.2649 10.6015L101.321 19.938C101.436 20.2015 101.242 20.496 100.955 20.496C100.668 20.496 100.475 20.2019 100.589 19.9384L104.631 10.6027C104.789 10.2368 105.15 10 105.548 10H108.548Z" fill="#6D6EFF"/>
<path d="M84.4445 22.256C83.0365 22.256 81.7992 21.9947 80.7325 21.472C79.6765 20.9493 78.8552 20.2187 78.2686 19.28C77.6819 18.3413 77.3885 17.248 77.3885 16C77.3885 14.752 77.6819 13.6587 78.2686 12.72C78.8552 11.7813 79.6765 11.0507 80.7325 10.528C81.7992 10.0053 83.0365 9.74399 84.4445 9.74399C85.8525 9.74399 87.0845 10.0053 88.1405 10.528C89.2072 11.0507 90.0339 11.7813 90.6205 12.72C91.2179 13.6587 91.5166 14.752 91.5166 16C91.5166 17.248 91.2179 18.3413 90.6205 19.28C90.0339 20.2187 89.2072 20.9493 88.1405 21.472C87.0845 21.9947 85.8525 22.256 84.4445 22.256ZM84.4445 19.552C85.2765 19.552 85.9912 19.4133 86.5886 19.136C87.1859 18.848 87.6445 18.4373 87.9646 17.904C88.2952 17.3707 88.4605 16.736 88.4605 16C88.4605 15.264 88.2952 14.6293 87.9646 14.096C87.6445 13.5627 87.1859 13.1573 86.5886 12.88C85.9912 12.592 85.2765 12.448 84.4445 12.448C83.6232 12.448 82.9139 12.592 82.3165 12.88C81.7192 13.1573 81.2552 13.5627 80.9245 14.096C80.5939 14.6293 80.4286 15.264 80.4286 16C80.4286 16.736 80.5939 17.3707 80.9245 17.904C81.2552 18.4373 81.7192 18.848 82.3165 19.136C82.9139 19.4133 83.6232 19.552 84.4445 19.552Z" fill="#6D6EFF"/>
<path d="M75.5443 10C76.0966 10 76.5443 10.4477 76.5443 11V21C76.5443 21.5523 76.0966 22 75.5443 22H74.5363C73.984 22 73.5363 21.5523 73.5363 21V12.2713C73.5363 11.9155 73.9656 11.7362 74.2186 11.9864C74.4733 12.2381 74.2951 12.672 73.937 12.672H66.69C66.3351 12.672 66.1574 12.2429 66.4083 11.992C66.6593 11.7411 67.0883 11.9188 67.0883 12.2737V21C67.0883 21.5523 66.6406 22 66.0883 22H65.0643C64.512 22 64.0643 21.5523 64.0643 21V11C64.0643 10.4477 64.512 10 65.0643 10H75.5443Z" fill="#6D6EFF"/>
<path d="M53.0907 19.584C52.5384 19.584 52.0907 19.1363 52.0907 18.584V18.152C52.0907 17.5997 52.5384 17.152 53.0907 17.152H59.3787C59.931 17.152 60.3787 17.5997 60.3787 18.152V18.584C60.3787 19.1363 59.931 19.584 59.3787 19.584H53.0907ZM57.6267 10C58.0168 10 58.3713 10.2269 58.5347 10.5811L63.1481 20.5811C63.4538 21.2437 62.9698 22 62.2401 22H61.2376C60.8419 22 60.4834 21.7666 60.3232 21.4047L56.0226 11.6886C55.9342 11.4888 56.0805 11.264 56.299 11.264C56.5173 11.264 56.6637 11.4885 56.5755 11.6882L52.2898 21.4036C52.1299 21.7661 51.771 22 51.3748 22H50.3733C49.6436 22 49.1596 21.2437 49.4653 20.5811L54.0786 10.5811C54.242 10.2269 54.5965 10 54.9866 10H57.6267Z" fill="#6D6EFF"/>
<path d="M36 11C36 10.4477 36.4477 10 37 10H38.024C38.5763 10 39.024 10.4477 39.024 11V21C39.024 21.5523 38.5763 22 38.024 22H37C36.4477 22 36 21.5523 36 21V11ZM45.536 11C45.536 10.4477 45.9837 10 46.536 10H47.544C48.0963 10 48.544 10.4477 48.544 11V21C48.544 21.5523 48.0963 22 47.544 22H46.536C45.9837 22 45.536 21.5523 45.536 21V11ZM37.68 15.592C37.68 15.0397 38.1277 14.592 38.68 14.592H45.816C46.3683 14.592 46.816 15.0397 46.816 15.592V16.248C46.816 16.8003 46.3683 17.248 45.816 17.248H38.68C38.1277 17.248 37.68 16.8003 37.68 16.248V15.592Z" fill="#6D6EFF"/>
<defs>
<linearGradient id="paint0_linear_713_1593" x1="32" y1="0" x2="0" y2="32" gradientUnits="userSpaceOnUse">
<stop stop-color="#D665FF"/>
<stop offset="1" stop-color="#4C6FFF"/>
</linearGradient>
</defs>
</svg>
